<svg width="65" height="65" viewBox="0 0 65 65" fill="none" xmlns="http://www.w3.org/2000/svg">
<path d="M62.2139 62.5862H2.78528C2.53766 62.5862 2.29004 62.4005 2.29004 62.0909C2.29004 61.7814 2.47575 61.5957 2.78528 61.5957H62.2139C62.4615 61.5957 62.7091 61.7814 62.7091 62.0909C62.7091 62.4005 62.4615 62.5862 62.2139 62.5862Z" fill="#0F0F0F"/>
<path d="M30.1473 44.8812L29.3426 46.6146L28.9092 47.4812L21.914 62.0289H17.6426L25.1331 46.4908L26.2473 44.2622L27.1759 42.2812C27.8569 43.5193 28.9092 44.386 30.1473 44.8812Z" fill="#5B5476"/>
<path d="M48.2856 62.0909H44.0142L36.8951 47.3575L36.3999 46.2432L35.5332 44.5718C36.7713 43.8908 37.7618 42.7766 38.3189 41.4766L39.3713 43.6432L40.6713 46.3051L48.2856 62.0909Z" fill="#5B5476"/>
<path d="M20.7372 55.5908L17.5801 62.0908H21.8515L25.0087 55.5908H20.7372Z" fill="#3F3B5B"/>
<path d="M42.8994 59.9234L44.0137 62.0901H48.2851L46.428 58.252L42.8994 59.9234Z" fill="#3F3B5B"/>
<path d="M34.8518 44.8809V62.0904H31.0137V45.1285C31.5089 45.2523 32.0041 45.3142 32.4994 45.3142H32.6851H32.9327H33.1803C33.7375 45.2523 34.2946 45.1285 34.8518 44.8809Z" fill="#5B5476"/>
<path d="M30.1475 44.8812L29.3427 46.6146L28.9094 47.4812C27.6094 47.2955 26.3094 46.9241 25.0713 46.4908L26.1856 44.2622L27.1141 42.2812C27.857 43.5193 28.9094 44.386 30.1475 44.8812Z" fill="#3F3B5B"/>
<path d="M33.1184 45.3142C33.7375 45.2523 34.2946 45.1285 34.8518 44.8809V47.6666C34.047 47.7285 33.3041 47.7904 32.4994 47.7904C32.0041 47.7904 31.5089 47.7904 31.0137 47.7285V45.1285C31.5089 45.2523 32.0041 45.3142 32.4994 45.3142H32.6851H32.9327H33.1184Z" fill="#3F3B5B"/>
<path d="M40.6713 46.3051C39.4332 46.8004 38.1951 47.1718 36.8951 47.4194L36.3999 46.3051L35.5332 44.5718C36.7713 43.8908 37.7618 42.7766 38.3189 41.4766L39.3713 43.6432L40.6713 46.3051Z" fill="#3F3B5B"/>
<path d="M21.852 62.5854H17.5806C17.3949 62.5854 17.2711 62.5235 17.2092 62.3378C17.1473 62.152 17.0854 62.0282 17.2092 61.9044L26.7425 42.1568C26.8044 42.033 26.9901 41.9092 27.1139 41.9092C27.2997 41.9092 27.4235 41.9711 27.5473 42.1568C28.2282 43.2092 29.2187 44.0758 30.3949 44.5092C30.5187 44.5711 30.5806 44.633 30.6425 44.7568C30.7044 44.8806 30.7044 45.0044 30.6425 45.1282L22.2854 62.2758C22.2235 62.4616 22.0377 62.5854 21.852 62.5854ZM18.3235 61.6568H21.6044L29.5282 45.1282C28.5997 44.6949 27.7949 44.0758 27.1758 43.2711L18.3235 61.6568Z" fill="#0F0F0F"/>
<path d="M48.2854 62.5852H44.0139C43.8282 62.5852 43.6425 62.4614 43.5806 62.3376L35.0996 44.7567C34.9758 44.509 35.0996 44.2614 35.2854 44.1376C36.4615 43.5186 37.3901 42.4662 37.8854 41.29C37.9473 41.1043 38.133 40.9805 38.3187 40.9805C38.5044 40.9805 38.6901 41.1043 38.752 41.2281L48.6568 61.9043C48.7187 62.0281 48.7187 62.2138 48.6568 62.3376C48.5949 62.4614 48.4092 62.5852 48.2854 62.5852ZM44.2615 61.6567H47.5425L38.3187 42.5281C37.7615 43.3948 37.0187 44.1995 36.152 44.7567L44.2615 61.6567Z" fill="#0F0F0F"/>
<path d="M34.8519 62.5856H31.0138C30.7662 62.5856 30.5186 62.3999 30.5186 62.0904V45.1285C30.5186 45.0047 30.5805 44.8808 30.7043 44.757C30.8281 44.6951 30.9519 44.6332 31.0757 44.6951C31.509 44.8189 32.0043 44.8808 32.4376 44.8808H32.6233H32.809H33.0567C33.6138 44.8189 34.1709 44.6951 34.6662 44.5094C34.79 44.4475 34.9757 44.4475 35.0995 44.5713C35.2233 44.6951 35.2852 44.8189 35.2852 44.9427V62.1523C35.3471 62.338 35.0995 62.5856 34.8519 62.5856ZM31.4471 61.657H34.3567V45.5618C33.9852 45.6856 33.5519 45.7475 33.1186 45.8094C33.0567 45.8094 32.9328 45.8094 32.8709 45.8094C32.809 45.8094 32.6852 45.8094 32.6233 45.8094H32.4376C32.0662 45.8094 31.7567 45.8094 31.3852 45.7475V61.657H31.4471Z" fill="#0F0F0F"/>
<path d="M52.6803 25.1331C52.6803 36.276 43.6422 45.3141 32.4993 45.3141C21.3565 45.3141 12.3184 36.3379 12.3184 25.1331C12.3184 13.9902 21.3565 4.95215 32.4993 4.95215C43.6422 4.95215 52.6803 13.9902 52.6803 25.1331Z" fill="#FF84A0"/>
<path d="M52.6802 25.1335C52.6802 36.2764 43.6421 45.3145 32.4992 45.3145C25.4421 45.3145 19.2516 41.724 15.6611 36.2145C19.1897 39.4954 23.9564 41.4764 29.1564 41.4764C40.2992 41.4764 49.3373 32.4383 49.3373 21.2954C49.3373 17.2097 48.1611 13.4335 46.0564 10.2764C50.1421 13.9287 52.6802 19.2526 52.6802 25.1335Z" fill="#F76189"/>
<path d="M32.499 40.9804C23.7704 40.9804 16.6514 33.8613 16.6514 25.1328C16.6514 16.4042 23.7704 9.28516 32.499 9.28516C41.2276 9.28516 48.3466 16.4042 48.3466 25.1328C48.3466 33.8613 41.2276 40.9804 32.499 40.9804Z" fill="white"/>
<path d="M48.3472 25.133C48.3472 33.8615 41.2282 40.9806 32.4996 40.9806C27.1758 40.9806 22.4091 38.3187 19.5615 34.233C22.2853 36.5853 25.8758 38.0091 29.7758 38.0091C38.5044 38.0091 45.6234 30.8901 45.6234 22.1615C45.6234 18.7568 44.571 15.6615 42.7139 13.0615C46.1806 15.971 48.3472 20.3044 48.3472 25.133Z" fill="#DDDDDD"/>
<path d="M32.4997 41.4763C23.5235 41.4763 16.2188 34.1716 16.2188 25.1335C16.2188 16.1573 23.5235 8.85254 32.4997 8.85254C41.4759 8.85254 48.8426 16.1573 48.8426 25.1335C48.7807 34.1716 41.4759 41.4763 32.4997 41.4763ZM32.4997 9.78111C24.0187 9.78111 17.1473 16.6525 17.1473 25.1335C17.1473 33.6144 24.0187 40.5478 32.4997 40.5478C40.9807 40.5478 47.914 33.6763 47.914 25.1335C47.8521 16.6525 40.9807 9.78111 32.4997 9.78111Z" fill="#0F0F0F"/>
<path d="M32.4996 36.6477C26.1854 36.6477 20.9854 31.5096 20.9854 25.1334C20.9854 18.8191 26.1234 13.6191 32.4996 13.6191C38.8758 13.6191 44.0139 18.7572 44.0139 25.1334C44.0139 31.5096 38.8139 36.6477 32.4996 36.6477Z" fill="#FF84A0"/>
<path d="M44.0136 25.1334C44.0136 31.5096 38.8136 36.6477 32.4993 36.6477C28.1659 36.6477 24.4517 34.2334 22.4707 30.7048C24.4517 32.2525 26.9278 33.2429 29.6517 33.2429C36.0278 33.2429 41.1659 28.0429 41.1659 21.7287C41.1659 19.6858 40.6707 17.8287 39.7421 16.1572C42.2802 18.262 44.0136 21.5429 44.0136 25.1334Z" fill="#F76189"/>
<path d="M32.4994 37.1427C25.8756 37.1427 20.5518 31.757 20.5518 25.1332C20.5518 18.5094 25.9375 13.1855 32.4994 13.1855C39.1232 13.1855 44.5089 18.5713 44.5089 25.1332C44.447 31.757 39.1232 37.1427 32.4994 37.1427ZM32.4994 14.1141C26.4327 14.1141 21.4803 19.0665 21.4803 25.1332C21.4803 31.1998 26.4327 36.2141 32.4994 36.2141C38.566 36.2141 43.5803 31.2617 43.5803 25.1332C43.5184 19.0665 38.566 14.1141 32.4994 14.1141Z" fill="#0F0F0F"/>
<path d="M32.4993 32.3141C28.5374 32.3141 25.3184 29.095 25.3184 25.1331C25.3184 21.1712 28.5374 17.9521 32.4993 17.9521C36.4612 17.9521 39.6803 21.1712 39.6803 25.1331C39.6803 29.095 36.4612 32.3141 32.4993 32.3141Z" fill="white"/>
<path d="M39.6805 25.1333C39.6805 29.0952 36.4615 32.3143 32.4996 32.3143C29.4043 32.3143 26.8043 30.3333 25.752 27.6095C26.99 28.5381 28.4758 29.1571 30.1472 29.1571C34.1091 29.1571 37.3281 25.9381 37.3281 21.9762C37.3281 21.1095 37.1424 20.3048 36.8948 19.5C38.5662 20.8 39.6805 22.8429 39.6805 25.1333Z" fill="#DDDDDD"/>
<path d="M32.4991 32.809C28.2895 32.809 24.8848 29.4043 24.8848 25.1328C24.8848 20.9233 28.2895 17.5186 32.4991 17.5186C36.7086 17.5186 40.1752 20.9233 40.1752 25.1328C40.1133 29.3424 36.7086 32.809 32.4991 32.809ZM32.4991 18.4471C28.7848 18.4471 25.8133 21.4805 25.8133 25.1328C25.8133 28.8471 28.8467 31.8805 32.4991 31.8805C36.2133 31.8805 39.2467 28.8471 39.2467 25.1328C39.1848 21.4805 36.2133 18.4471 32.4991 18.4471Z" fill="#0F0F0F"/>
<path d="M12.9995 37.1425C12.8138 37.1425 12.6899 37.0805 12.628 36.8948C12.3185 36.3996 12.0709 35.9044 11.8233 35.4091C11.6995 35.1615 11.8233 34.9139 12.009 34.7901C12.2566 34.6663 12.5042 34.7901 12.628 34.9758C12.8757 35.471 13.1233 35.9044 13.3709 36.3996C13.4947 36.6472 13.4328 36.8948 13.1852 37.0186C13.1852 37.0805 13.0614 37.1425 12.9995 37.1425Z" fill="#0F0F0F"/>
<path d="M20.1185 44.5714C20.0566 44.5714 19.9328 44.5714 19.8709 44.5095C17.5804 43.0238 15.5375 41.1047 13.928 38.8762C13.8042 38.6904 13.8042 38.3809 14.0518 38.2571C14.2375 38.1333 14.5471 38.1333 14.6709 38.3809C16.2185 40.4857 18.1375 42.3428 20.3661 43.7666C20.5518 43.8904 20.6137 44.2 20.4899 44.3857C20.3661 44.5095 20.2423 44.5714 20.1185 44.5714Z" fill="#0F0F0F"/>
<path d="M51.5666 13.4334C51.4428 13.4334 51.2571 13.3715 51.1952 13.2476C49.3999 10.4 46.9237 7.98574 44.0142 6.25241C43.7666 6.1286 43.7047 5.81908 43.8285 5.63336C43.9523 5.38574 44.2618 5.32384 44.4476 5.44765C47.419 7.24289 50.019 9.78098 51.938 12.7524C52.0618 12.9381 51.9999 13.2476 51.8142 13.3715C51.7523 13.3715 51.6285 13.4334 51.5666 13.4334Z" fill="#0F0F0F"/>
<path d="M42.2804 5.19992C42.2185 5.19992 42.1566 5.19992 42.0947 5.13802C41.7232 4.9523 41.4137 4.82849 41.0423 4.64278C40.7947 4.51897 40.6709 4.27135 40.7947 4.02373C40.9185 3.77611 41.1661 3.6523 41.4137 3.77611C41.7851 3.96182 42.1566 4.08563 42.528 4.27135C42.7137 4.45706 42.8375 4.70468 42.7137 4.9523C42.6518 5.13802 42.4661 5.19992 42.2804 5.19992Z" fill="#0F0F0F"/>
<path d="M32.4991 45.809C21.1086 45.809 11.8848 36.5233 11.8848 25.1328C11.8848 13.7424 21.1086 4.51855 32.4991 4.51855C43.8895 4.51855 53.1752 13.7424 53.1752 25.1328C53.1133 36.5233 43.8895 45.809 32.4991 45.809ZM32.4991 5.44713C21.6657 5.44713 12.8133 14.2995 12.8133 25.1328C12.8133 36.0281 21.6657 44.8805 32.4991 44.8805C43.3943 44.8805 52.2467 36.0281 52.2467 25.1328C52.1848 14.2995 43.3324 5.44713 32.4991 5.44713Z" fill="#0F0F0F"/>
<path d="M42.9619 58.9339L49.8333 58.9958L53.7333 53.1768L46.1191 55.6529L42.9619 58.9339Z" fill="#DABCBC"/>
<path d="M53.7333 53.1768L49.8333 58.9958L42.9619 58.9339L44.2619 57.572H46.1191C47.9762 57.572 49.7714 56.6434 50.8238 55.0958L51.6905 53.7958L53.7333 53.1768Z" fill="#BC9595"/>
<path d="M60.9757 62.091L53.7328 53.1768L49.8328 58.9958L39.8661 58.9339L36.709 62.091H60.9757Z" fill="#DABCBC"/>
<path d="M60.9757 62.091H36.709L37.8852 60.9149H49.8947C53.3614 60.9149 55.2804 56.891 53.1137 54.2291L53.7947 53.1768L60.9757 62.091Z" fill="#BC9595"/>
<path d="M60.9753 62.5856H36.7086C36.5229 62.5856 36.3372 62.4618 36.2753 62.2761C36.2134 62.0904 36.2134 61.9047 36.3991 61.7809L39.5563 58.6237C39.6182 58.5618 39.742 58.4999 39.8658 58.4999L49.5848 58.6237L53.361 52.9904C53.4229 52.8666 53.6086 52.8047 53.7324 52.8047C53.8563 52.8047 54.042 52.8666 54.1039 52.9904L61.3467 61.9047C61.4705 62.0285 61.4705 62.2142 61.4086 62.3999C61.3467 62.4618 61.161 62.5856 60.9753 62.5856ZM37.8229 61.6571H60.0467L53.7944 53.9809L50.2039 59.3047C50.142 59.4285 49.9563 59.4904 49.8324 59.4904L40.0515 59.3666L37.8229 61.6571Z" fill="#0F0F0F"/>
<path d="M49.8334 59.4909L42.9 59.429C42.7143 59.429 42.5286 59.3052 42.4667 59.1195C42.4048 58.9338 42.4048 58.7481 42.5905 58.6243L45.8096 55.2814C45.8715 55.2195 45.9334 55.1576 45.9953 55.1576L53.6096 52.6814C53.7953 52.6195 53.981 52.6814 54.1048 52.8671C54.2286 53.0528 54.2286 53.2386 54.1048 53.4243L50.2048 59.2433C50.1429 59.3671 49.9572 59.4909 49.8334 59.4909ZM44.0143 58.5005L49.5858 58.5624L52.6191 54.0433L46.3667 56.0243L44.0143 58.5005Z" fill="#0F0F0F"/>
<path d="M18.1994 59.7386L13.0613 59.8005L10.0898 55.4053L15.847 57.2624L18.1994 59.7386Z" fill="#DABCBC"/>
<path d="M18.1997 59.7386L12.9997 59.8005L10.0283 55.4053L11.8855 56.0243L12.7521 57.3243C13.3093 58.1291 14.1759 58.6243 15.1664 58.6243H17.0236L18.1997 59.7386Z" fill="#BC9595"/>
<path d="M4.64258 62.091L10.0902 55.4053L13.0616 59.8005L20.4902 59.6767L22.9045 62.091H4.64258Z" fill="#DABCBC"/>
<path d="M22.9045 62.091H4.64258L10.0902 55.4053L10.7711 56.4577L9.59496 57.8815C8.60448 59.1196 9.47115 60.9148 11.0188 60.9148H21.6664L22.9045 62.091Z" fill="#BC9595"/>
<path d="M22.9039 62.5863H4.64196C4.45625 62.5863 4.27054 62.4625 4.20863 62.3387C4.14673 62.153 4.14673 61.9673 4.27054 61.8435L9.71815 55.0959C9.84196 54.9721 9.96577 54.9102 10.0896 54.9102C10.2134 54.9102 10.3991 54.9721 10.461 55.0959L13.2467 59.2435L20.4896 59.1816C20.6134 59.1816 20.7372 59.2435 20.7991 59.3054L23.1515 61.7197C23.2753 61.8435 23.3372 62.0292 23.2753 62.2149C23.2753 62.4625 23.0896 62.5863 22.9039 62.5863ZM5.63244 61.6578H21.7896L20.3658 60.1721L13.061 60.234C12.9372 60.234 12.7515 60.1721 12.6896 60.0483L10.0896 56.2102L5.63244 61.6578Z" fill="#0F0F0F"/>
<path d="M13.0617 60.2337C12.9379 60.2337 12.7522 60.1718 12.6903 60.048L9.71883 55.6528C9.59502 55.4671 9.59502 55.2814 9.71883 55.0956C9.84264 54.9099 10.0284 54.848 10.2141 54.9099L15.9093 56.7671C15.9712 56.7671 16.0331 56.829 16.095 56.8909L18.5093 59.3671C18.6331 59.4909 18.695 59.6766 18.6331 59.8623C18.5712 60.048 18.3855 60.1718 18.1998 60.1718L13.0617 60.2337ZM11.2045 56.2718L13.2474 59.3052L17.0855 59.2433L15.5379 57.6337L11.2045 56.2718Z" fill="#0F0F0F"/>
<path d="M10.6476 47.3578C10.6476 48.8435 9.47146 50.0197 8.04765 50.0197C6.56193 50.0197 5.38574 48.8435 5.38574 47.3578C5.38574 45.934 6.56193 44.7578 8.04765 44.7578C9.47146 44.7578 10.6476 45.934 10.6476 47.3578Z" fill="#C3C9FB"/>
<path d="M10.6475 47.3575C10.6475 48.7813 9.47129 50.0194 8.04748 50.0194C6.93319 50.0194 5.94272 49.2765 5.57129 48.286C5.94272 48.5337 6.43796 48.6575 6.93319 48.6575C8.357 48.6575 9.5951 47.4813 9.5951 45.9956C9.5951 45.6861 9.53319 45.3765 9.47129 45.1289C10.1522 45.6241 10.6475 46.4289 10.6475 47.3575Z" fill="#8693E2"/>
<path d="M8.04739 50.4532C6.31405 50.4532 4.95215 49.0913 4.95215 47.3579C4.95215 45.6246 6.31405 44.2627 8.04739 44.2627C9.78072 44.2627 11.1426 45.6246 11.1426 47.3579C11.1426 49.0913 9.78072 50.4532 8.04739 50.4532ZM8.04739 45.1913C6.8712 45.1913 5.88072 46.1817 5.88072 47.3579C5.88072 48.5341 6.8712 49.5246 8.04739 49.5246C9.22358 49.5246 10.2141 48.5341 10.2141 47.3579C10.2141 46.1817 9.22358 45.1913 8.04739 45.1913Z" fill="#0F0F0F"/>
<path d="M52 7.55233C53.1143 7.30472 54.1667 6.74757 54.9095 5.94281C55.7143 5.13805 56.2714 4.14757 56.519 3.03329C56.519 2.90948 56.7048 2.90948 56.7667 3.03329C57.0143 4.14757 57.5714 5.19995 58.3762 5.94281C59.181 6.74757 60.1714 7.30472 61.2857 7.55233C61.4095 7.55233 61.4095 7.73805 61.2857 7.79995C58.9952 8.29519 57.2619 10.0285 56.7667 12.319C56.7667 12.4428 56.581 12.4428 56.519 12.319C56.2714 11.2047 55.7143 10.1523 54.9095 9.40948C54.1048 8.60471 53.1143 8.04757 52 7.79995V7.55233Z" fill="#AFF2B6"/>
<path d="M61.2856 7.73876C58.9951 8.234 57.1999 9.96734 56.7665 12.2578C56.7665 12.3816 56.5808 12.3816 56.5189 12.2578C56.2713 11.1435 55.7761 10.215 55.0332 9.41019C56.7665 9.10067 58.1284 7.61496 58.1903 5.75781C58.1903 5.81972 58.2522 5.81972 58.3142 5.88162C59.1189 6.68638 60.1094 7.24353 61.2237 7.49115C61.4094 7.55305 61.4094 7.73876 61.2856 7.73876Z" fill="#7FD685"/>
<path d="M56.7045 12.8766C56.4569 12.8766 56.2093 12.6908 56.1474 12.3813C55.9616 11.3289 55.4045 10.4004 54.6616 9.71942C53.9188 8.97656 52.9902 8.48132 51.9378 8.29561C51.6902 8.23371 51.5664 8.04799 51.5664 7.86228V7.61466C51.5664 7.36704 51.6902 7.18132 51.9378 7.18132C52.9283 6.99561 53.8569 6.43847 54.5997 5.69561C55.3426 4.95275 55.8378 4.02418 56.0235 2.9718C56.0855 2.66228 56.3331 2.47656 56.5807 2.47656C56.8283 2.47656 57.0759 2.66228 57.1378 2.9718C57.3235 4.02418 57.8807 4.95275 58.6235 5.69561C59.3664 6.43847 60.295 6.93371 61.3474 7.11942C61.6569 7.18132 61.8426 7.42894 61.8426 7.67656C61.8426 7.98609 61.6569 8.1718 61.3474 8.23371C59.2426 8.66704 57.6331 10.3385 57.1997 12.4432C57.1997 12.6908 56.9521 12.8766 56.7045 12.8766ZM53.2378 7.67656C53.9807 7.98609 54.7235 8.41942 55.2807 9.03847C55.8997 9.65752 56.3331 10.3385 56.6426 11.0813C57.2616 9.53371 58.4997 8.23371 60.0474 7.61466C59.3045 7.30513 58.5616 6.8718 57.9426 6.25275C57.3235 5.63371 56.8902 4.95275 56.5807 4.2099C56.3331 4.95275 55.8378 5.69561 55.2807 6.25275C54.6616 6.8718 53.9807 7.36704 53.2378 7.67656Z" fill="#0F0F0F"/>
<path d="M50.0807 47.048C55.8244 47.048 60.4807 42.3918 60.4807 36.648C60.4807 30.9043 55.8244 26.248 50.0807 26.248C44.3369 26.248 39.6807 30.9043 39.6807 36.648C39.6807 42.3918 44.3369 47.048 50.0807 47.048Z" fill="#FFD9B0"/>
<path d="M60.5432 36.648C60.5432 39.929 59.0574 42.8385 56.7051 44.6957C54.9098 46.1814 52.6194 47.048 50.1432 47.048C47.667 47.048 45.4384 46.1814 43.6432 44.7576C41.2289 42.8385 39.7432 39.929 39.7432 36.648C39.7432 30.8909 44.386 26.248 50.1432 26.248C55.8384 26.248 60.5432 30.8909 60.5432 36.648Z" fill="#FFD9B0"/>
<path d="M60.5425 36.6483C60.5425 42.4055 55.8996 47.0483 50.1425 47.0483C46.6139 47.0483 43.5187 45.315 41.5996 42.6531C43.271 43.8293 45.3139 44.5102 47.5425 44.5102C53.2996 44.5102 57.9425 39.8674 57.9425 34.1102C57.9425 31.8817 57.2615 29.7769 56.0234 28.1055C58.7472 30.0245 60.5425 33.1198 60.5425 36.6483Z" fill="#EDB57E"/>
<path d="M50.0808 47.5434C44.076 47.5434 39.1855 42.6529 39.1855 36.6482C39.1855 30.6434 44.076 25.7529 50.0808 25.7529C56.0855 25.7529 60.976 30.6434 60.976 36.6482C60.976 42.6529 56.0855 47.5434 50.0808 47.5434ZM50.0808 26.6815C44.5713 26.6815 40.1141 31.1386 40.1141 36.6482C40.1141 42.1577 44.5713 46.6148 50.0808 46.6148C55.5903 46.6148 60.0475 42.1577 60.0475 36.6482C60.0475 31.1386 55.5903 26.6815 50.0808 26.6815Z" fill="#0F0F0F"/>
<path d="M56.7045 44.7579C54.9092 46.2436 52.6188 47.1102 50.1426 47.1102C47.6664 47.1102 45.4378 46.2436 43.6426 44.8198C44.4473 43.4578 45.7473 42.3436 47.2331 41.7245C48.1616 41.3531 49.1521 41.1055 50.2045 41.1055C51.2569 41.1055 52.2473 41.2912 53.1759 41.7245C53.4235 41.8483 53.6711 41.9721 53.9188 42.0959C54.9092 42.6531 55.714 43.3959 56.395 44.2626C56.5188 44.4483 56.6426 44.5721 56.7045 44.7579Z" fill="#AFF2B6"/>
<path d="M56.7047 44.7579C56.3952 45.0055 56.0857 45.2531 55.7761 45.4388C55.219 44.8817 54.5999 44.3864 53.919 43.9531C53.6714 43.8293 53.4237 43.7055 53.1761 43.5817C52.2476 43.2102 51.2571 42.9626 50.2047 42.9626C49.1523 42.9626 48.0999 43.1483 47.2333 43.5817C46.2428 44.015 45.3142 44.634 44.6333 45.4388C44.3237 45.2531 44.0142 45.0055 43.7666 44.8198C44.5714 43.4578 45.8714 42.3436 47.3571 41.7245C48.2857 41.3531 49.2761 41.1055 50.3285 41.1055C51.3809 41.1055 52.3714 41.2912 53.2999 41.7245C53.5476 41.8483 53.7952 41.9721 54.0428 42.0959C55.0333 42.6531 55.838 43.3959 56.519 44.2626C56.519 44.4483 56.6428 44.5721 56.7047 44.7579Z" fill="#7FD685"/>
<path d="M50.0808 47.5434C47.6046 47.5434 45.2522 46.7386 43.2712 45.1291C43.0855 45.0053 43.0236 44.6958 43.1474 44.5101C44.0141 43.0862 45.376 41.9101 46.9236 41.2291C48.9665 40.3624 51.2569 40.3624 53.2998 41.2291C53.6093 41.3529 53.8569 41.4767 54.1046 41.6624C55.095 42.2196 56.0236 43.0243 56.7046 43.9529C56.8284 44.1386 56.9522 44.3243 57.0141 44.5101C57.076 44.6958 57.076 44.9434 56.8903 45.0672C55.0331 46.6767 52.6189 47.5434 50.0808 47.5434ZM44.1998 44.6958C45.9331 45.9339 47.9141 46.6148 50.0808 46.6148C52.2474 46.6148 54.3522 45.9339 56.0855 44.6339L56.0236 44.572C55.4046 43.7053 54.5998 43.0243 53.6712 42.5291C53.4236 42.4053 53.176 42.2815 52.9284 42.1577C51.1331 41.4148 49.0903 41.4148 47.295 42.1577C46.1189 42.6529 45.0046 43.5815 44.1998 44.6958Z" fill="#0F0F0F"/>
<path d="M51.8145 40.7334V42.0334C51.8145 42.962 51.0717 43.7048 50.1431 43.7048C49.7098 43.7048 49.2764 43.5191 48.9669 43.2096C48.6574 42.9001 48.4717 42.4667 48.4717 42.0334V40.7334C48.9669 40.9191 49.5241 41.0429 50.1431 41.0429C50.7622 41.0429 51.3193 40.9191 51.8145 40.7334Z" fill="white"/>
<path d="M51.8145 40.7334V42.0334C51.8145 42.6524 51.4431 43.2096 50.9479 43.5191C51.0717 43.3334 51.0717 43.0858 51.0717 42.8382C51.0717 42.2191 50.5764 41.7239 49.9574 41.7858C49.7717 41.7858 49.586 41.7858 49.4003 41.7858C49.0907 41.7858 48.7812 41.7858 48.4717 41.7239V40.7334C48.9669 40.9191 49.5241 41.0429 50.1431 41.0429C50.7622 41.0429 51.3193 40.9191 51.8145 40.7334Z" fill="#DDDDDD"/>
<path d="M50.1428 44.1391C49.5857 44.1391 49.0286 43.8915 48.6571 43.5201C48.2857 43.1487 48.0381 42.5915 48.0381 42.0344V40.7344C48.0381 40.6106 48.1 40.4248 48.2238 40.3629C48.3476 40.301 48.5333 40.2391 48.6571 40.301C49.6476 40.6725 50.7 40.6725 51.6286 40.301C51.7524 40.2391 51.9381 40.301 52.0619 40.3629C52.1857 40.4248 52.2476 40.6106 52.2476 40.7344V42.0344C52.3095 43.2106 51.319 44.1391 50.1428 44.1391ZM48.9667 41.3534V42.0344C48.9667 42.3439 49.0905 42.6534 49.3381 42.901C49.5857 43.1487 49.8333 43.2725 50.2048 43.2725C50.8857 43.2725 51.3809 42.7153 51.3809 42.0963V41.4153C50.5762 41.5391 49.7714 41.5391 48.9667 41.3534Z" fill="#0F0F0F"/>
<path d="M54.9712 33.8626V35.9673H45.376V33.8626C45.376 31.8816 46.9855 30.334 48.9045 30.334H51.3807C53.3617 30.334 54.9712 31.9435 54.9712 33.8626Z" fill="#5B5476"/>
<path d="M54.9708 33.8626V35.1626C54.9708 33.1816 53.3613 31.634 51.4423 31.634H48.9661C46.9851 31.634 45.4375 33.2435 45.4375 35.1626V33.8626C45.4375 31.8816 47.047 30.334 48.9661 30.334H51.4423C53.3613 30.334 54.9708 31.9435 54.9708 33.8626Z" fill="#3F3B5B"/>
<path d="M54.9713 36.4002H45.3761C45.1285 36.4002 44.8809 36.2145 44.8809 35.9049V33.8002C44.8809 31.5716 46.6761 29.7764 48.9047 29.7764H51.3809C53.6094 29.7764 55.4047 31.5716 55.4047 33.8002V35.9049C55.4047 36.2145 55.219 36.4002 54.9713 36.4002ZM45.8713 35.4716H54.4761V33.8621C54.4761 32.1907 53.1142 30.7668 51.3809 30.7668H48.9047C47.2332 30.7668 45.8094 32.1287 45.8094 33.8621V35.4716H45.8713Z" fill="#0F0F0F"/>
<path d="M55.4047 36.029C55.4047 36.7719 54.7856 37.3909 54.0428 37.3909H53.9809C53.857 39.4338 52.1856 41.0433 50.1428 41.0433C49.0904 41.0433 48.0999 40.61 47.419 39.929C46.7999 39.31 46.3666 38.3814 46.3047 37.4528H46.2428C45.4999 37.4528 44.8809 36.8338 44.8809 36.0909C44.8809 35.348 45.4999 34.729 46.2428 34.729H46.4904C46.4904 34.6671 47.357 34.729 47.7904 34.729C49.1523 34.729 50.3904 33.9242 50.9475 32.748C51.5047 33.429 52.3713 33.9242 53.3618 33.9242H53.4856C53.6094 34.1719 53.7332 34.4814 53.857 34.729H54.1047C54.8475 34.729 55.4047 35.2861 55.4047 36.029Z" fill="white"/>
<path d="M55.4041 36.0287C55.4041 36.7716 54.7851 37.3906 54.0422 37.3906H53.9803C53.8565 39.4335 52.1851 41.043 50.1422 41.043C49.0899 41.043 48.0994 40.6097 47.4184 39.9287C47.047 39.5573 46.7375 39.124 46.5518 38.6287C46.8613 38.6287 47.1708 38.6906 47.4803 38.6906C51.3184 38.6906 54.4756 37.0192 54.4756 34.9144V34.8525C55.0327 34.9763 55.4041 35.4716 55.4041 36.0287Z" fill="#DDDDDD"/>
<path d="M50.1425 41.4767C48.9663 41.4767 47.9139 41.0434 47.1092 40.1767C46.4282 39.4958 46.0568 38.691 45.8711 37.7625C45.0044 37.5767 44.4473 36.8339 44.4473 36.0291C44.4473 35.0386 45.252 34.2339 46.2425 34.2339H46.4282H47.1711H47.7901C48.9663 34.2339 50.0187 33.5529 50.5139 32.5005C50.5758 32.3767 50.6996 32.2529 50.8854 32.2529C51.0711 32.2529 51.1949 32.3148 51.3187 32.4386C51.8139 33.0577 52.5568 33.4291 53.3615 33.4291H53.4854C53.6711 33.4291 53.7949 33.491 53.8568 33.6767C53.9806 33.8625 54.0425 34.0482 54.1663 34.2339C55.0949 34.2958 55.8996 35.1005 55.8996 36.0291C55.8996 36.8958 55.2806 37.6386 54.4758 37.8244C54.1044 39.9291 52.3092 41.4767 50.1425 41.4767ZM46.2425 35.1625C45.7473 35.1625 45.3758 35.5339 45.3758 36.0291C45.3758 36.5244 45.7473 36.8958 46.2425 36.8958C46.4901 36.8958 46.7377 37.0815 46.7377 37.3291C46.7996 38.1339 47.1092 38.9386 47.7282 39.4958C48.3473 40.1148 49.2139 40.4863 50.1425 40.4863C51.9377 40.4863 53.4235 39.0625 53.5473 37.2672C53.5473 37.0196 53.7949 36.8339 53.9806 36.8339C54.5377 36.8339 54.9092 36.4625 54.9092 35.9672C54.9092 35.472 54.5377 35.1005 54.0425 35.1005C53.9806 35.1005 53.9187 35.1005 53.9187 35.1005C53.6711 35.1625 53.4235 35.0386 53.3615 34.791C53.2996 34.6053 53.2377 34.4815 53.1758 34.2958C52.3711 34.2339 51.6282 33.9863 51.0092 33.4291C50.2663 34.4815 49.0901 35.1005 47.7901 35.1005C47.6044 35.1005 47.3568 35.1005 47.1092 35.1005C46.9235 35.1005 46.6758 35.1005 46.6139 35.1005C46.552 35.1005 46.4282 35.1625 46.3663 35.1005C46.3663 35.1625 46.3044 35.1625 46.2425 35.1625Z" fill="#0F0F0F"/>
<path d="M15.6617 24.0812C21.4055 24.0812 26.0617 19.425 26.0617 13.6812C26.0617 7.93749 21.4055 3.28125 15.6617 3.28125C9.91796 3.28125 5.26172 7.93749 5.26172 13.6812C5.26172 19.425 9.91796 24.0812 15.6617 24.0812Z" fill="#FFD9B0"/>
<path d="M26.0617 13.6819C26.0617 16.9628 24.576 19.8723 22.2236 21.7295C20.4284 23.2152 18.1379 24.0819 15.6617 24.0819C13.1855 24.0819 10.957 23.2152 9.16172 21.7914C6.74743 19.8723 5.26172 16.9628 5.26172 13.6819C5.26172 7.92471 9.90458 3.28185 15.6617 3.28185C21.4189 3.21995 26.0617 7.92471 26.0617 13.6819Z" fill="#DABCBC"/>
<path d="M26.062 13.6815C26.062 19.4387 21.4191 24.0815 15.662 24.0815C12.1334 24.0815 9.03819 22.3482 7.11914 19.6863C8.79057 20.8625 10.8334 21.5434 13.062 21.5434C18.8191 21.5434 23.5239 16.9006 23.5239 11.1434C23.5239 8.91486 22.8429 6.8101 21.6049 5.13867C24.2668 6.99581 26.062 10.0911 26.062 13.6815Z" fill="#BC9595"/>
<path d="M15.6618 24.5766C9.65708 24.5766 4.7666 19.6861 4.7666 13.6814C4.7666 7.67661 9.65708 2.78613 15.6618 2.78613C21.6666 2.78613 26.5571 7.67661 26.5571 13.6814C26.5571 19.6861 21.6666 24.5766 15.6618 24.5766ZM15.6618 3.7147C10.1523 3.7147 5.69517 8.17185 5.69517 13.6814C5.69517 19.1909 10.1523 23.648 15.6618 23.648C21.1714 23.648 25.6285 19.1909 25.6285 13.6814C25.6285 8.17185 21.1095 3.7147 15.6618 3.7147Z" fill="#0F0F0F"/>
<path d="M22.224 21.7286C20.4288 23.2143 18.1383 24.0809 15.6621 24.0809C13.1859 24.0809 10.9573 23.2143 9.16211 21.7905C9.96687 20.4286 11.2669 19.3143 12.7526 18.6952C13.6812 18.3238 14.6716 18.0762 15.724 18.0762C16.7764 18.0762 17.7669 18.2619 18.6954 18.6952L19.4383 19.0666C20.4288 19.6238 21.2335 20.3666 21.9145 21.2333C22.0383 21.419 22.1621 21.6047 22.224 21.7286Z" fill="#ABECEF"/>
<path d="M22.2242 21.7286C21.9147 21.9762 21.6052 22.2238 21.2957 22.4095C20.7385 21.8524 20.1195 21.3571 19.4385 20.9238C19.1909 20.8 18.9433 20.6762 18.6957 20.5524C17.7671 20.1809 16.7766 19.9333 15.7242 19.9333C14.6718 19.9333 13.6195 20.119 12.7528 20.5524C11.7623 20.9857 10.8338 21.6047 10.1528 22.4095C9.84328 22.2238 9.53375 21.9762 9.28613 21.7905C10.0909 20.4286 11.3909 19.3143 12.8766 18.6952C13.8052 18.3238 14.7957 18.0762 15.848 18.0762C16.9004 18.0762 17.8909 18.2619 18.8195 18.6952L19.5623 19.0666C20.5528 19.6238 21.3576 20.3666 22.0385 21.2333C22.0385 21.419 22.1623 21.6047 22.2242 21.7286Z" fill="#75C5C9"/>
<path d="M15.6618 24.5766C13.1856 24.5766 10.8332 23.7718 8.85228 22.1623C8.66657 22.0385 8.60467 21.729 8.72848 21.5433C9.59514 20.1194 10.957 18.9433 12.5047 18.2623C14.5475 17.3956 16.838 17.3956 18.8809 18.2623C19.1904 18.3861 19.438 18.5099 19.6856 18.6956C20.6761 19.2528 21.6047 20.0575 22.2856 20.9861C22.4094 21.1718 22.5332 21.3575 22.5951 21.5433C22.657 21.729 22.657 21.9766 22.4713 22.1004C20.5523 23.648 18.138 24.5766 15.6618 24.5766ZM9.71895 21.6671C11.4523 22.9052 13.4332 23.5861 15.5999 23.5861C17.7666 23.5861 19.8713 22.9052 21.6047 21.6052L21.5428 21.5433C20.9237 20.6766 20.119 19.9956 19.1904 19.5004C18.9428 19.3766 18.6951 19.2528 18.4475 19.129C16.6523 18.3861 14.6094 18.3861 12.8142 19.129C11.638 19.6861 10.5237 20.5528 9.71895 21.6671Z" fill="#0F0F0F"/>
<path d="M17.3956 17.7051V19.0051C17.3956 19.9336 16.6527 20.6765 15.7242 20.6765C15.2908 20.6765 14.8575 20.4908 14.548 20.1813C14.2384 19.8717 14.0527 19.4384 14.0527 19.0051V17.7051C14.548 17.8908 15.1051 18.0146 15.7242 18.0146C16.3432 18.0146 16.8384 17.8908 17.3956 17.7051Z" fill="white"/>
<path d="M17.3956 17.7051V19.0051C17.3956 19.6241 17.0242 20.1813 16.5289 20.4908C16.6527 20.3051 16.6527 20.0575 16.6527 19.8098C16.6527 19.1908 16.1575 18.6956 15.5384 18.7575C15.3527 18.7575 15.167 18.7575 14.9813 18.7575C14.6718 18.7575 14.3623 18.7575 14.0527 18.6956V17.7051C14.548 17.8908 15.1051 18.0146 15.7242 18.0146C16.3432 18.0146 16.8384 17.8908 17.3956 17.7051Z" fill="#DDDDDD"/>
<path d="M15.7239 21.1098C15.1668 21.1098 14.6096 20.8622 14.2382 20.4908C13.8668 20.1194 13.6191 19.5622 13.6191 19.0051V17.7051C13.6191 17.5813 13.681 17.3955 13.8049 17.3336C13.9287 17.2717 14.1144 17.2098 14.2382 17.2717C15.2287 17.6432 16.281 17.6432 17.2096 17.2717C17.3334 17.2098 17.5191 17.2717 17.643 17.3336C17.7668 17.3955 17.8287 17.5813 17.8287 17.7051V19.0051C17.8287 20.1813 16.9001 21.1098 15.7239 21.1098ZM14.5477 18.3241V19.0051C14.5477 19.3146 14.6715 19.6241 14.9191 19.8717C15.1668 20.1194 15.4144 20.2432 15.7858 20.2432C16.4668 20.2432 16.962 19.686 16.962 19.067V18.386C16.0953 18.5098 15.2906 18.5098 14.5477 18.3241Z" fill="#0F0F0F"/>
<path d="M20.4904 10.8955V13.0003H10.957V10.8955C10.957 8.91458 12.5666 7.36696 14.4856 7.36696H16.9618C18.8808 7.30506 20.4904 8.91458 20.4904 10.8955Z" fill="#5B5476"/>
<path d="M20.4904 10.8955V12.1955C20.4904 10.2146 18.8808 8.66696 16.9618 8.66696H14.4856C12.5046 8.66696 10.957 10.2765 10.957 12.1955V10.8955C10.957 8.91458 12.5666 7.36696 14.4856 7.36696H16.9618C18.8808 7.30506 20.4904 8.91458 20.4904 10.8955Z" fill="#3F3B5B"/>
<path d="M20.4905 13.4334H10.9572C10.7095 13.4334 10.4619 13.2477 10.4619 12.9381V10.8334C10.4619 8.60481 12.2572 6.80957 14.4857 6.80957H16.9619C19.1905 6.80957 20.9857 8.60481 20.9857 10.8334V12.9381C20.9238 13.1858 20.7381 13.4334 20.4905 13.4334ZM11.3905 12.5048H19.9952V10.8953C19.9952 9.22386 18.6333 7.80005 16.9 7.80005H14.4238C12.7524 7.80005 11.3286 9.16195 11.3286 10.8953V12.5048H11.3905Z" fill="#0F0F0F"/>
<path d="M20.9242 13.0622C20.9242 13.8051 20.3052 14.4241 19.5623 14.4241H19.5004C19.3766 16.467 17.7052 18.0765 15.6623 18.0765C14.6099 18.0765 13.6194 17.6432 12.9385 16.9622C12.3194 16.3432 11.8861 15.4146 11.8242 14.486H11.7623C11.0194 14.486 10.4004 13.867 10.4004 13.1241C10.4004 12.3813 11.0194 11.7622 11.7623 11.7622H12.0099C12.0099 11.7003 12.8766 11.7622 13.3099 11.7622C14.6718 11.7622 15.9099 10.9574 16.4671 9.78125C17.0242 10.4622 17.8909 10.9574 18.8813 10.9574H19.0052C19.129 11.2051 19.2528 11.5146 19.3766 11.7622H19.6242C20.3671 11.7003 20.9242 12.3193 20.9242 13.0622Z" fill="white"/>
<path d="M20.9237 13.0619C20.9237 13.8048 20.3046 14.4238 19.5618 14.4238H19.4999C19.3761 16.4667 17.7046 18.0762 15.6618 18.0762C14.6094 18.0762 13.6189 17.6429 12.938 16.9619C12.5665 16.5905 12.257 16.1572 12.0713 15.6619C12.3808 15.6619 12.6903 15.7238 12.9999 15.7238C16.838 15.7238 19.9951 14.0524 19.9951 11.9476V11.8857C20.5522 11.9476 20.9237 12.4429 20.9237 13.0619Z" fill="#DDDDDD"/>
<path d="M15.7236 18.4484C14.5474 18.4484 13.495 18.0151 12.6902 17.1484C12.0093 16.4675 11.6378 15.6627 11.4521 14.7341C10.5855 14.5484 10.0283 13.8056 10.0283 13.0008C10.0283 12.0103 10.8331 11.2056 11.8236 11.2056H12.0093H12.7521H13.3712C14.5474 11.2056 15.5997 10.5246 16.095 9.47223C16.1569 9.34842 16.2807 9.22461 16.4664 9.22461C16.6521 9.22461 16.7759 9.28651 16.8997 9.41032C17.395 10.0294 18.1378 10.4008 18.9426 10.4008H19.0664C19.2521 10.4008 19.3759 10.4627 19.4378 10.6484C19.5617 10.8341 19.6236 11.0198 19.7474 11.2056C20.6759 11.2675 21.4807 12.0722 21.4807 13.0008C21.4807 13.8675 20.8617 14.6103 20.0569 14.796C19.6855 16.9008 17.8283 18.4484 15.7236 18.4484ZM11.8236 12.196C11.3283 12.196 10.9569 12.5675 10.9569 13.0627C10.9569 13.5579 11.3283 13.9294 11.8236 13.9294C12.0712 13.9294 12.3188 14.1151 12.3188 14.3627C12.3807 15.1675 12.6902 15.9722 13.3093 16.5294C13.9283 17.1484 14.795 17.5198 15.7236 17.5198C17.5188 17.5198 19.0045 16.096 19.1283 14.3008C19.1283 14.0532 19.3759 13.8675 19.5617 13.8675C20.1188 13.8675 20.4902 13.496 20.4902 13.0008C20.4902 12.5056 20.1188 12.1341 19.6236 12.1341C19.5617 12.1341 19.4997 12.1341 19.4997 12.1341C19.2521 12.196 19.0045 12.0722 18.9426 11.8246C18.8807 11.6389 18.8188 11.5151 18.7569 11.3294C17.9521 11.2675 17.2093 11.0198 16.5902 10.4627C15.8474 11.5151 14.6712 12.1341 13.3712 12.1341C13.1855 12.1341 12.9378 12.1341 12.6902 12.1341C12.5045 12.1341 12.2569 12.1341 12.195 12.1341C12.1331 12.1341 12.0093 12.196 11.9474 12.1341C11.8855 12.196 11.8236 12.196 11.8236 12.196Z" fill="#0F0F0F"/>
</svg>
